<svg xmlns="http://www.w3.org/2000/svg" width="1365.333" height="1365.333" preserveAspectRatio="xMidYMid meet" version="1.0" viewBox="0 0 1024 1024"><metadata>Created by potrace 1.11, written by Peter Selinger 2001-2013</metadata><g fill="#000" stroke="none"><path d="M3545 8543 c-209 -20 -373 -76 -521 -179 -82 -58 -239 -211 -280 -274 -16 -25 -31 -47 -34 -50 -13 -13 -72 -134 -95 -193 -24 -64 -27 -77 -40 -142 -3 -16 -8 -37 -12 -45 -9 -24 -12 -296 -3 -338 5 -20 11 -53 14 -72 9 -62 47 -173 86 -250 49 -99 73 -140 83 -140 4 0 7 -5 7 -10 0 -14 11 -27 105 -125 112 -117 238 -198 378 -244 l67 -23 0 -1337 0 -1338 -72 -29 c-280 -111 -495 -320 -602 -584 -69 -170 -93 -434 -56 -611 49 -231 140 -398 302 -554 180 -173 362 -266 588 -298 234 -33 474 7 666 113 73 40 204 142 264 205 25 26 52 55 61 64 23 23 121 171 114 171 -4 0 2 12 13 27 11 16 25 46 33 68 7 22 17 45 21 51 7 10 34 115 44 174 11 57 13 309 3 355 -26 126 -56 217 -101 305 -48 95 -68 131 -78 140 -3 3 -27 32 -52 65 -83 109 -199 202 -342 275 l-94 48 18 27 c57 87 194 167 355 209 66 17 235 51 300 60 23 4 50 8 60 10 11 2 49 7 85 11 36 4 76 8 90 10 142 17 214 24 285 30 95 8 190 17 205 20 8 1 47 6 85 10 160 15 432 84 580 146 17 7 32 13 35 14 98 34 317 151 390 210 111 88 237 242 298 360 64 125 99 224 128 360 10 46 32 203 33 235 1 19 4 49 6 65 1 17 3 37 4 45 1 9 18 22 39 29 148 52 310 167 432 307 30 34 110 155 135 203 28 55 75 190 92 266 24 106 25 323 2 432 -29 139 -93 302 -140 355 -9 10 -22 31 -30 46 -28 54 -184 210 -273 272 -64 45 -200 118 -231 124 -11 3 -39 11 -62 20 -125 45 -372 56 -520 25 -119 -26 -119 -26 -172 -46 -237 -89 -486 -320 -591 -548 -71 -154 -92 -254 -95 -443 -3 -131 8 -215 38 -317 14 -47 21 -65 34 -95 98 -223 227 -382 398 -491 33 -21 65 -42 70 -46 12 -10 147 -67 197 -84 20 -7 34 -17 32 -23 -2 -6 -6 -42 -8 -81 -8 -115 -67 -289 -123 -365 -52 -70 -140 -141 -227 -184 -121 -60 -280 -112 -396 -130 -19 -3 -45 -8 -57 -10 -12 -3 -54 -8 -95 -11 -40 -4 -86 -8 -103 -11 -16 -2 -68 -6 -115 -9 -47 -4 -96 -8 -110 -10 -14 -2 -50 -6 -80 -10 -166 -17 -216 -23 -260 -30 -14 -2 -43 -7 -65 -9 -231 -29 -593 -116 -698 -166 -22 -11 -42 -20 -42 -20 -1 0 -2 434 -2 964 l0 963 51 18 c162 58 264 122 387 244 151 150 230 298 286 531 17 72 24 334 10 410 -16 91 -51 203 -79 254 -7 11 -13 26 -14 32 -2 15 -104 173 -124 195 -8 8 -31 33 -51 55 -50 54 -126 122 -174 153 -22 14 -49 34 -59 44 -11 9 -26 17 -33 17 -7 0 -13 5 -13 10 0 6 -6 10 -13 10 -7 0 -30 9 -51 20 -127 64 -369 108 -521 93z m177 -882 c60 -31 86 -62 103 -126 25 -99 -18 -206 -99 -247 -48 -25 -156 -29 -196 -9 -40 21 -90 73 -106 110 -18 43 -18 132 0 176 46 109 183 153 298 96z m3014 -863 c64 -44 94 -102 94 -180 0 -91 -39 -152 -128 -197 -30 -16 -108 -16 -159 -1 -159 48 -183 281 -39 378 43 28 56 32 116 32 60 0 73 -4 116 -32z m-3060 -3827 c11 0 41 -15 66 -31 128 -85 116 -301 -20 -366 -54 -26 -134 -27 -190 -3 -80 34 -122 101 -122 192 0 94 39 156 122 196 33 15 56 17 144 12z" transform="translate(0.000000,1024.000000) scale(0.100000,-0.100000)"/></g></svg>